<svg width="56" height="64" viewBox="0 0 56 64" fill="none" xmlns="http://www.w3.org/2000/svg">
<path d="M54.3103 25.8133C54.3103 25.8133 51.1103 28.8 45.6703 32.32C44.177 23.68 40.017 13.0133 31.9103 0C31.9103 0 29.2437 13.9733 20.3903 27.0933C16.5503 21.12 14.8437 16.4267 14.8437 16.4267C-12.8897 44.2667 10.1503 64 24.657 64C43.217 64 59.537 55.04 54.3103 25.8133Z" fill="#FF9D33"/>
<path d="M43.3237 50.56C44.9237 47.04 46.097 42.4533 46.3103 36.6933C46.3103 36.6933 44.0703 38.6133 40.2303 41.0667C39.1637 35.3067 36.2837 28.2667 30.6303 19.52C30.6303 19.52 28.817 28.8 22.6303 37.6533C19.9637 33.7067 18.7903 30.5067 18.7903 30.5067C14.2037 37.76 12.3903 43.52 12.2837 48.1067C9.72367 47.1467 8.12367 46.4 8.12367 46.4C12.497 59.4133 21.5637 62.2933 25.617 62.2933C32.8703 62.2933 40.2303 60.16 47.4837 49.8133C47.4837 49.7067 45.8837 50.1333 43.3237 50.56Z" fill="#FFCE31"/>
<path d="M16.8704 44.6933C16.8704 44.6933 19.857 48.7467 22.097 47.7867C22.097 47.7867 26.3637 41.0667 32.5504 37.3333C32.5504 37.3333 31.2704 47.5733 32.7637 49.3867C34.6837 51.84 39.9104 46.72 39.9104 46.72C39.9104 52.8 33.297 60.3733 27.3237 60.3733C21.5637 60.3733 13.2437 53.76 16.8704 44.6933Z" fill="#FFDF85"/>
<path d="M46.6304 17.1733C48.8704 13.9733 50.3637 10.56 50.3637 10.56C54.097 16.7467 51.857 20.48 50.257 21.6533C48.017 23.36 44.0704 20.9067 46.6304 17.1733ZM5.88368 16.1067C3.64368 12.3733 3.43035 7.68 3.43035 7.68C-1.90298 15.68 0.123683 20.16 1.93702 21.44C4.28368 23.2533 8.33702 20.48 5.88368 16.1067ZM18.257 7.78666C18.577 5.22666 17.5104 2.66666 17.5104 2.66666C22.5237 5.97333 22.5237 8.74666 21.8837 9.92C20.9237 11.3067 17.937 10.6667 18.257 7.78666Z" fill="#FF9D33"/>
</svg>
